<?xml version="1.0" encoding="utf-8"?>
<!-- Generator: Adobe Illustrator 19.0.0, SVG Export Plug-In . SVG Version: 6.00 Build 0)  -->
<svg version="1.1" id="Capa_1" xmlns="http://www.w3.org/2000/svg" xmlns:xlink="http://www.w3.org/1999/xlink" x="0px" y="0px"
	 viewBox="-256 348.6 97.4 97.4" style="enable-background:new -256 348.6 97.4 97.4;" xml:space="preserve">
<style type="text/css">
	.st0{fill:#FDFFFC;}
</style>
<g>
	<path class="st0" d="M-243.5,348.6h72.4c6.9,0,12.5,5.1,12.5,12.5v72.4c0,7.4-5.6,12.5-12.5,12.5h-72.4c-6.9,0-12.5-5.1-12.5-12.5
		v-72.4C-256,353.7-250.4,348.6-243.5,348.6L-243.5,348.6z M-185.1,359.4c-2.4,0-4.4,2-4.4,4.4v10.5c0,2.4,2,4.4,4.4,4.4h11
		c2.4,0,4.4-2,4.4-4.4v-10.5c0-2.4-2-4.4-4.4-4.4H-185.1L-185.1,359.4z M-169.6,389.8h-8.6c0.8,2.6,1.3,5.5,1.3,8.4
		c0,16.2-13.6,29.3-30.3,29.3c-16.7,0-30.3-13.1-30.3-29.3c0-2.9,0.4-5.7,1.3-8.4h-8.9v41.1c0,2.1,1.7,3.9,3.9,3.9h67.8
		c2.1,0,3.9-1.7,3.9-3.9L-169.6,389.8L-169.6,389.8z M-207.2,378.1c-10.8,0-19.6,8.5-19.6,19c0,10.5,8.8,19,19.6,19
		c10.8,0,19.6-8.5,19.6-19C-187.6,386.6-196.4,378.1-207.2,378.1z"/>
</g>
</svg>
